<?xml version="1.0" encoding="utf-8"?>
<!-- Generator: Adobe Illustrator 24.0.1, SVG Export Plug-In . SVG Version: 6.00 Build 0)  -->
<svg version="1.1" id="Camada_3" xmlns="http://www.w3.org/2000/svg" xmlns:xlink="http://www.w3.org/1999/xlink" x="0px" y="0px"
	 viewBox="0 0 500 400" style="enable-background:new 0 0 500 400;" xml:space="preserve">
<style type="text/css">
	.st0{fill:#FFFFFF;}
</style>
<g>
	<g>
		<path class="st0" d="M77.2,360.9c-1.2,0-2,0-2.9-0.8c-0.8-0.4-1.2-1.2-1.6-1.6c-0.4-0.8-0.4-1.6-0.4-2c0-0.8,0.4-1.6,0.8-2
			c0.4-0.4,1.2-0.8,2-0.8c1.6,0,3.3-0.8,4.1-1.6c0.8-0.8,1.2-2,1.2-4.1v-29.4c0-1.6,0.4-2.9,1.2-4.1c0.8-0.8,2-1.2,4.1-1.2
			c1.6,0,2.9,0.4,4.1,1.2c0.8,0.8,1.2,2,1.2,4.1V347c0,3.3-0.4,5.7-1.6,7.8c-0.8,2-2.5,3.7-4.5,4.5
			C82.9,360.5,80.5,360.9,77.2,360.9z M85.8,307.4c-2,0-3.3-0.4-4.5-1.2c-1.2-0.8-1.6-2-1.6-4.1c0-1.6,0.4-2.9,1.6-3.7
			c1.2-0.8,2.5-1.2,4.5-1.2s3.3,0.4,4.5,1.2c1.2,0.8,1.6,2,1.6,3.7c0,1.6-0.4,3.3-1.6,4.1C89.1,307,87.8,307.4,85.8,307.4z"/>
		<path class="st0" d="M246.7,348.7c-2,0-4.1,0-6.1-0.4c-2-0.4-4.1-0.8-5.7-2c-0.8-0.4-1.6-1.2-2-1.6c-0.4-0.8-0.4-1.6-0.4-2
			c0-0.8,0.4-1.6,0.8-2c0.4-0.4,1.2-0.8,1.6-1.2c0.8-0.4,1.6,0,2.5,0.4c2,0.8,3.7,1.2,5.3,1.6c1.6,0.4,3.3,0.4,4.5,0.4
			c2,0,3.3-0.4,4.5-0.8c0.8-0.8,1.2-1.6,1.2-2.5c0-0.8-0.4-1.6-0.8-2c-0.4-0.4-1.6-0.8-2.5-0.8l-7.4-1.2c-2.9-0.4-4.9-1.6-6.5-3.3
			c-1.6-1.6-2.5-3.7-2.5-6.1s0.8-4.5,2-6.1c1.2-1.6,3.3-2.9,5.3-3.7c2.5-0.8,4.9-1.2,7.8-1.2c2,0,4.1,0,5.7,0.4
			c1.6,0.4,3.3,0.8,5.3,2c0.8,0.4,1.6,0.8,1.6,1.6c0.4,0.8,0.4,1.6,0.4,2c0,0.8-0.4,1.2-0.8,2c-0.4,0.4-1.2,0.8-1.6,1.2
			c-0.8,0.4-1.6,0-2.5-0.4c-1.6-0.4-2.9-1.2-4.1-1.2c-1.2-0.4-2.5-0.4-3.3-0.4c-2,0-3.7,0.4-4.5,0.8c-0.8,0.8-1.6,1.6-1.6,2.5
			s0.4,1.6,0.8,2c0.4,0.4,1.2,0.8,2.5,1.2l7.4,1.2c2.9,0.4,5.3,1.6,6.9,3.3c1.6,1.6,2.5,3.7,2.5,6.1c0,3.7-1.2,6.5-4.1,8.6
			C255.3,347.8,251.6,348.7,246.7,348.7z"/>
		<g>
			<path class="st0" d="M22.5,298.8H5.3c-1.6,0-3.3,0.4-4.1,1.2c-0.8,0.8-1.2,2.5-1.2,4.5v38.4c0,1.6,0.4,3.3,1.2,4.1s2,1.6,4.1,1.6
				c1.6,0,3.3-0.4,4.1-1.6c0.8-0.8,1.2-2.5,1.2-4.1v-12.7h11.8c5.3,0,9.8-1.2,12.7-4.1c2.9-2.9,4.5-6.5,4.5-11.4
				c0-4.9-1.6-8.6-4.5-11.4C32.3,300.5,27.8,298.8,22.5,298.8z M27,320.1c-1.6,1.2-3.7,2-6.5,2H11v-14.7h9.8c2.9,0,4.9,0.4,6.5,1.6
				c1.2,1.2,2,3.3,2,5.3C29,317.2,28.6,318.8,27,320.1z"/>
			<path class="st0" d="M66.6,314.8c-2.5-1.2-5.3-1.6-9-1.6c-1.6,0-3.3,0-5.3,0.4c-2,0.4-4.1,0.8-6.1,1.6c-1.2,0.4-2,0.8-2.5,1.6
				c-0.4,0.8-0.8,1.6-0.8,2.5c0,0.8,0.4,1.6,0.8,2c0.4,0.8,0.8,1.2,1.6,1.2c0.8,0,1.6,0,2.9-0.4c1.6-0.8,3.3-1.2,4.9-1.6
				c1.6-0.4,2.9-0.4,4.1-0.4c2.5,0,3.7,0.4,4.9,1.2c0.8,0.8,1.2,2.5,1.2,4.5v1.2h-2.5c-4.9,0-8.6,0.4-11.4,0.8
				c-2.9,0.8-4.9,1.6-6.1,3.3c-1.2,1.6-2,3.3-2,6.1c0,2,0.4,4.1,1.6,5.7c1.2,1.6,2.5,2.9,4.5,4.1c2,1.2,4.1,1.6,6.9,1.6
				c1.6,0,3.3-0.4,4.9-0.8c1.2-0.8,2.5-1.6,3.3-2.5c0.4-0.8,0.8-1.6,1.2-2.5v0.4c0,1.6,0.4,2.9,1.2,4.1c0.8,1.2,2,1.2,3.7,1.2
				c1.6,0,2.9-0.4,3.7-1.2c0.8-0.8,1.2-2,1.2-4.1v-15.5c0-3.3-0.4-6.1-1.6-8.2C70.7,317.2,69,315.6,66.6,314.8z M62.5,338.4
				c-0.4,1.2-1.6,2-2.5,2.5c-1.2,0.4-2.5,0.8-3.7,0.8c-1.6,0-2.9-0.4-3.7-1.2c-0.8-0.8-1.2-2-1.2-3.3s0.4-2,0.8-2.5
				c0.8-0.8,1.6-1.2,3.3-1.2c1.6-0.4,3.3-0.4,5.7-0.4h2.5v1.2C63.3,336,63.3,337.2,62.5,338.4z"/>
			<path class="st0" d="M121.7,314.8c-2.5-1.2-5.3-1.6-9-1.6c-1.6,0-3.3,0-5.3,0.4c-2,0.4-4.1,0.8-6.1,1.6c-1.2,0.4-2,0.8-2.5,1.6
				c-0.4,0.8-0.8,1.6-0.8,2.5c0,0.8,0.4,1.6,0.8,2c0.4,0.8,0.8,1.2,1.6,1.2c0.8,0,1.6,0,2.9-0.4c1.6-0.8,3.3-1.2,4.9-1.6
				c1.6-0.4,2.9-0.4,4.1-0.4c2.5,0,3.7,0.4,4.9,1.2c0.8,0.8,1.2,2.5,1.2,4.5v1.2H116c-4.9,0-8.6,0.4-11.4,0.8
				c-2.9,0.8-4.9,1.6-6.1,3.3c-1.2,1.6-2,3.3-2,6.1c0,2,0.4,4.1,1.6,5.7c1.2,1.6,2.5,2.9,4.5,4.1c2,0.8,4.1,1.6,6.9,1.6
				c1.6,0,3.3-0.4,4.9-0.8c1.2-0.8,2.5-1.6,3.3-2.5c0.4-0.8,0.8-1.6,1.2-2.5v0.4c0,1.6,0.4,2.9,1.2,4.1s2,1.2,3.7,1.2
				c1.6,0,2.9-0.4,3.7-1.2c0.8-0.8,1.2-2,1.2-4.1v-15.5c0-3.3-0.4-6.1-1.6-8.2C125.8,317.2,124.2,315.6,121.7,314.8z M118.1,338.4
				c-0.4,1.2-1.6,2-2.5,2.5c-1.2,0.4-2.5,0.8-3.7,0.8c-1.6,0-2.9-0.4-3.7-1.2c-0.8-0.8-1.2-2-1.2-3.3s0.4-2,0.8-2.5
				c0.8-0.8,1.6-1.2,3.3-1.2c1.6-0.4,3.3-0.4,5.7-0.4h2.5v1.2C118.9,336,118.5,337.2,118.1,338.4z"/>
			<path class="st0" d="M184.2,314.8c-1.6-1.2-3.7-1.6-6.5-1.6s-5.3,0.8-7.4,2c-1.6,1.2-3.3,2.5-4.1,4.5c-0.8-2-2-3.7-3.3-4.5
				c-1.6-1.2-4.1-2-6.5-2s-4.9,0.8-6.9,2c-1.6,0.8-2.5,2-3.7,3.7v-0.4c0-1.6-0.4-2.9-1.2-4.1c-0.8-0.8-2-1.2-3.7-1.2
				s-2.9,0.4-3.7,1.2c-0.8,0.8-1.2,2-1.2,4.1v24.5c0,1.6,0.4,2.9,1.2,4.1c0.8,0.8,2,1.2,3.7,1.2c3.7,0,5.3-1.6,5.3-5.3v-13.9
				c0-2.5,0.4-4.5,1.6-6.1c1.2-1.2,2.5-2,4.5-2c1.6,0,2.9,0.4,3.7,1.6c0.8,1.2,1.2,2.9,1.2,4.9v15.5c0,1.6,0.4,2.9,1.2,4.1
				c0.8,0.8,2,1.2,4.1,1.2c2,0,2.9-0.4,3.7-1.2c0.8-0.8,1.2-2,1.2-4.1v-13.9c0-2.5,0.4-4.5,1.6-6.1c1.2-1.2,2.5-2,4.5-2
				c1.6,0,3.3,0.4,3.7,1.6c0.8,1.2,1.2,2.9,1.2,4.9v15.5c0,1.6,0.4,2.9,1.2,4.1c0.8,0.8,2,1.2,3.7,1.2s2.9-0.4,4.1-1.2
				c0.8-0.8,1.2-2,1.2-4.1V327c0-3.3-0.4-6.1-1.2-8.2C187.1,317.2,185.9,315.6,184.2,314.8z"/>
			<path class="st0" d="M220.2,314.8c-2.5-1.2-5.3-1.6-9-1.6c-1.6,0-3.3,0-5.3,0.4c-2,0.4-4.1,0.8-6.1,1.6c-1.2,0.4-2,0.8-2.5,1.6
				c-0.4,0.8-0.8,1.6-0.8,2.5c0,0.8,0.4,1.6,0.8,2c0.4,0.8,0.8,1.2,1.6,1.2c0.8,0.4,1.6,0,2.9-0.4c1.6-0.8,3.3-1.2,4.9-1.6
				c1.6-0.4,2.9-0.4,4.1-0.4c2.5,0,3.7,0.4,4.9,1.2c0.8,0.8,1.2,2.5,1.2,4.5v1.2h-2.5c-4.9,0-8.6,0.4-11.4,0.8
				c-2.9,0.8-4.9,1.6-6.1,3.3c-1.2,1.6-2,3.3-2,6.1c0,2,0.4,4.1,1.6,5.7c1.2,1.6,2.5,2.9,4.5,4.1c2,0.8,4.1,1.6,6.9,1.6
				c1.6,0,3.3-0.4,4.9-0.8c1.2-0.8,2.5-1.6,3.3-2.5c0.4-0.8,0.8-1.6,1.2-2.5v0.4c0,1.6,0.4,2.9,1.2,4.1c0.8,0.8,2,1.2,3.7,1.2
				s2.9-0.4,3.7-1.2c0.8-0.8,1.2-2,1.2-4.1v-15.5c0-3.3-0.4-6.1-1.6-8.2C224.3,317.2,222.6,315.6,220.2,314.8z M216.1,338.4
				c-0.4,1.2-1.6,2-2.5,2.5c-1.2,0.4-2.5,0.8-3.7,0.8c-1.6,0-2.9-0.4-3.7-1.2c-0.8-0.8-1.2-2-1.2-3.3s0.4-2,0.8-2.5
				c0.8-0.8,1.6-1.2,3.3-1.2c1.6-0.4,3.3-0.4,5.7-0.4h2.5v1.2C216.9,336,216.9,337.2,216.1,338.4z"/>
			<path class="st0" d="M323.5,320.9h-11c-1.2,0-2.5,0.4-3.3,0.8c-0.8,0.4-1.2,1.6-1.2,2.9c0,1.2,0.4,2,1.2,2.9
				c0.8,0.8,1.6,1.2,3.3,1.2h6.1v9.4c-1.2,0.4-2,0.4-3.3,0.8c-1.6,0.4-3.7,0.4-5.3,0.4c-4.9,0-8.6-1.2-11.4-4.1
				c-2.5-2.9-3.7-6.5-3.7-11.8c0-3.3,0.4-6.5,1.6-9c1.2-2.5,2.9-4.1,4.9-5.3c2-1.2,4.9-2,8.2-2c2,0,3.7,0.4,5.7,0.8
				c1.6,0.4,3.3,1.2,4.9,2c1.2,0.4,2,0.8,3.3,0.4c0.8-0.4,1.6-0.8,2-1.6s0.8-1.6,1.2-2.5c0-0.8,0-1.6-0.4-2.9c-0.4-0.8-0.8-1.6-2-2
				c-2.5-1.2-4.9-2.5-7.4-2.9c-1.6,0-4.1-0.4-6.5-0.4c-4.1,0-7.8,0.4-11,1.6c-3.3,1.2-6.1,2.9-8.2,5.3c-2,2-4.1,4.9-5.3,8.2
				c-1.2,3.3-1.6,6.5-1.6,10.6c0,4.9,0.8,9.4,2.9,13.1c2,3.7,4.9,6.5,8.6,8.6c3.7,2,8.6,3.3,13.9,3.3c2.5,0,5.3-0.4,7.8-0.8
				c2.5-0.4,4.9-1.2,6.9-1.6c1.2-0.4,2-0.8,2.5-1.6c0.4-0.8,0.8-2,0.8-3.3V325c0-1.2-0.4-2.5-1.2-3.3
				C326,321.3,325.2,320.9,323.5,320.9z"/>
			<path class="st0" d="M359.1,314.8c-2.5-1.2-5.3-1.6-9-1.6c-1.6,0-3.3,0-5.3,0.4c-2,0.4-4.1,0.8-6.1,1.6c-1.2,0.4-2,0.8-2.5,1.6
				c-0.4,0.8-0.8,1.6-0.8,2.5c0,0.8,0.4,1.6,0.8,2c0.4,0.8,0.8,1.2,1.6,1.2c0.8,0.4,1.6,0,2.9-0.4c1.6-0.8,3.3-1.2,4.9-1.6
				c1.6-0.4,2.9-0.4,4.1-0.4c2.5,0,3.7,0.4,4.9,1.2c1.2,0.8,1.2,2.5,1.2,4.5v1.2h-2.5c-4.9,0-8.6,0.4-11.4,0.8
				c-2.9,0.8-4.9,1.6-6.1,3.3c-1.2,1.6-2,3.3-2,6.1c0,2,0.4,4.1,1.6,5.7c1.2,1.6,2.5,2.9,4.5,4.1s4.1,1.6,6.9,1.6
				c1.6,0,3.3-0.4,4.9-0.8c1.6-0.4,2.5-1.6,3.3-2.5c0.4-0.8,0.8-1.6,1.2-2.5v0.4c0,1.6,0.4,2.9,1.2,4.1c0.8,0.8,2,1.2,3.7,1.2
				c1.6,0,2.9-0.4,3.7-1.2c0.8-0.8,1.2-2,1.2-4.1v-15.5c0-3.3-0.4-6.1-1.6-8.2C363.2,317.2,361.5,315.6,359.1,314.8z M355.4,338.4
				c-0.4,1.2-1.6,2-2.5,2.5c-1.2,0.4-2.5,0.8-3.7,0.8c-1.6,0-2.9-0.4-3.7-1.2c-0.8-0.8-1.2-2-1.2-3.3s0.4-2,0.8-2.5
				c0.8-0.8,1.6-1.2,3.3-1.2c1.6-0.4,3.3-0.4,5.7-0.4h2.5v1.2C356.2,336,355.8,337.2,355.4,338.4z"/>
			<path class="st0" d="M421.6,314.8c-1.6-1.2-3.7-1.6-6.5-1.6c-2.9,0-5.3,0.8-7.4,2c-1.6,1.2-3.3,2.5-4.1,4.5c-0.8-2-2-3.7-3.3-4.5
				c-1.6-1.2-4.1-2-6.5-2s-4.9,0.8-6.9,2c-1.6,0.8-2.5,2-3.7,3.7v-0.4c0-1.6-0.4-2.9-1.2-4.1c-0.8-0.8-2-1.2-3.7-1.2
				s-2.9,0.4-3.7,1.2c-0.8,0.8-1.2,2-1.2,4.1v24.5c0,1.6,0.4,2.9,1.2,4.1s2,1.2,3.7,1.2c3.7,0,5.3-1.6,5.3-5.3v-13.9
				c0-2.5,0.4-4.5,1.6-6.1c1.2-1.2,2.5-2,4.5-2c1.6,0,2.9,0.4,3.7,1.6c0.8,1.2,1.2,2.9,1.2,4.9v15.5c0,1.6,0.4,2.9,1.2,4.1
				c0.8,1.2,2,1.2,4.1,1.2c1.6,0,2.9-0.4,3.7-1.2c0.8-0.8,1.2-2,1.2-4.1v-13.9c0-2.5,0.4-4.5,1.6-6.1c1.2-1.2,2.5-2,4.5-2
				c1.6,0,3.3,0.4,3.7,1.6c0.8,1.2,1.2,2.9,1.2,4.9v15.5c0,1.6,0.4,2.9,1.2,4.1c0.8,1.2,2,1.2,3.7,1.2c1.6,0,2.9-0.4,4.1-1.2
				c0.8-0.8,1.2-2,1.2-4.1V327c0-3.3-0.4-6.1-1.2-8.2C424.4,317.2,423.2,315.6,421.6,314.8z"/>
			<path class="st0" d="M462,338.9c-0.8,0-1.6,0-2.9,0.4c-1.2,0.4-2.5,1.2-4.1,1.2c-1.6,0-2.9,0.4-3.7,0.4c-3.3,0-5.7-0.8-7.4-2.5
				c-1.2-1.2-2-2.9-2-5.3h20.4c1.2,0,2-0.4,2.5-0.8c0.4-0.4,0.8-1.2,0.8-2c0-2.5-0.4-4.9-1.2-7.4c-0.8-2-2-4.1-3.3-5.3
				c-1.6-1.6-3.3-2.5-5.3-3.3c-2-0.8-4.1-1.2-6.9-1.2c-3.3,0-6.5,0.8-9,2.5c-2.5,1.6-4.9,3.7-6.1,6.1c-1.6,2.5-2,5.7-2,9.4
				c0,3.7,0.8,6.9,2.5,9.4c1.6,2.9,3.7,4.9,6.5,6.1c2.9,1.6,6.5,2,10.6,2c1.6,0,3.7,0,5.7-0.4s3.7-1.2,5.3-2c0.8-0.4,1.6-1.2,2-2
				c0.4-0.8,0.4-1.6,0.4-2.5c0-0.8-0.4-1.6-0.8-2C463.6,339.3,462.8,338.9,462,338.9z M445.3,321.3c1.2-0.8,2.5-1.2,4.5-1.2
				c1.6,0,2.9,0.4,3.7,0.8s2,1.6,2.5,2.9c0.4,1.2,0.8,2.5,0.8,3.7h-15.1c0-1.2,0.4-2,0.8-3.3C443.2,322.9,444,322.1,445.3,321.3z"/>
		</g>
		<path class="st0" d="M483.7,348.7c-2,0-4.1,0-6.1-0.4s-4.1-0.8-5.7-2c-0.8-0.4-1.6-1.2-2-1.6c-0.4-0.8-0.4-1.6-0.4-2
			c0-0.8,0.4-1.6,0.8-2c0.4-0.4,1.2-0.8,1.6-1.2c0.8-0.4,1.6,0,2.5,0.4c2,0.8,3.7,1.2,5.3,1.6s3.3,0.4,4.5,0.4c2,0,3.3-0.4,4.5-0.8
			c0.8-0.8,1.2-1.6,1.2-2.5c0-0.8-0.4-1.6-0.8-2c-0.4-0.4-1.6-0.8-2.5-0.8l-7.4-1.2c-2.9-0.4-4.9-1.6-6.5-3.3
			c-1.6-1.6-2.5-3.7-2.5-6.1s0.8-4.5,2-6.1c1.2-1.6,3.3-2.9,5.3-3.7c2.5-0.8,4.9-1.2,7.8-1.2c2,0,4.1,0,5.7,0.4
			c1.6,0.4,3.3,0.8,5.3,2c0.8,0.4,1.6,0.8,1.6,1.6c0.4,0.8,0.4,1.6,0.4,2c0,0.8-0.4,1.2-0.8,2c-0.4,0.4-1.2,0.8-1.6,1.2
			c-0.8,0.4-1.6,0-2.5-0.4c-1.6-0.4-2.9-1.2-4.1-1.2c-1.2-0.4-2.5-0.4-3.3-0.4c-2,0-3.7,0.4-4.5,0.8c-0.8,0.8-1.6,1.6-1.6,2.5
			s0.4,1.6,0.8,2c0.4,0.4,1.2,0.8,2.5,1.2l7.4,1.2c2.9,0.4,5.3,1.6,6.9,3.3c1.6,1.6,2.5,3.7,2.5,6.1c0,3.7-1.2,6.5-4.1,8.6
			C491.8,347.8,488.2,348.7,483.7,348.7z"/>
	</g>
	<g>
		<g>
			
				<ellipse transform="matrix(1 -1.969320e-03 1.969320e-03 1 -0.3613 0.2884)" class="st0" cx="146.2" cy="183.6" rx="18" ry="18.4"/>
			<path class="st0" d="M188.3,118.3c-2.5-0.4-4.5,2.5-3.3,4.9c4.9,8.2,11,23.3,13.9,48.2c0,0,1.2,16.3-0.8,27
				c-1.2,5.3-6.1,8.2-11,7.4c-5.7-1.2-14.3-3.3-21.2-6.1c-1.2-0.4-2.5-0.4-3.7,0.8c-1.2,1.2-2.5,2.5-4.1,3.3c-1.6,1.2-2,3.3-0.8,4.9
				c8.6,9.4,27,23.3,40,23.7c13.9,0.8,50.2-2.5,83.3-110.7c0.8-2-0.8-4.5-3.3-4.1c-10.2,0.4-26.6,2-43.7,2.5
				C218.1,120.3,201,119.5,188.3,118.3z"/>
			<path class="st0" d="M231.2,111.7c-25.7,0-43.3-2-44.1-2c-15.9-2.5-13.1-8.2-12.3-16.3c3.3-9.4,2.9-13.9,15.5-13.1
				c0.8,0,43.7,6.1,89.1,1.6c7.8-0.8,10.6,3.3,11.4,11.4s3.3,13.9-12.7,16.3C261,110.9,245.1,111.7,231.2,111.7z"/>
		</g>
		<g>
			<path class="st0" d="M26.1,244.9c-3.3-3.7-1.6-10.6,1.2-11.4c2.9-0.4,5.3,4.9,18,6.1c12.3,1.6,26.6-1.2,26.6-1.2
				c4.5-0.8-0.4,11-4.5,12.3C37.2,256.3,26.6,245.3,26.1,244.9z"/>
			<path class="st0" d="M160.5,113.4c-2.9-20-23.3-38-70.3-62.1C61.7,37,34.3,26,33.5,25.5c-15.1-6.9-22.9-4.1-29.8,20
				C2,50.5-7.3,99.1,12.3,133c5.7,10.2,13.9,27.4,16.3,48.2c3.3,24.1,2.9,35.5,0,41.7c-5.3,11.8,45.8,15.5,49.4,6.5
				c6.9-15.9,0.8-30.6-3.3-57.2c5.3-3.3,15.1-9.4,27-13.1c4.9-1.6,10.2-2.9,15.1-4.1c8.6-2,16.7-4.1,24.1-7.4
				C155.2,140.7,162.6,127.7,160.5,113.4z M45.8,168.1c-4.9-9.8-2.9-26.1,0.8-30.2c0.8-1.2,2.5-1.2,3.7-0.4c1.2,0.8,1.2,2.5,0.4,3.3
				c-2,2.5-3.7,14.7,0.4,22.9c2.5,4.9,6.5,7.4,11.8,7.4l0,0c1.2,0,2.5,1.2,2.5,2.5C65.8,177.9,51.1,178.3,45.8,168.1z M62.9,124.8
				V87.6L94.8,106L62.9,124.8z"/>
			<g>
				<path class="st0" d="M98,46.8c-1.6,0-3.3-0.4-4.5-1.2c-38.8-25.3-68.6-32.3-69-32.3c-5.3-2,11.8-15.1,17.2-13.1
					c0.8,0.4,59.2,19.2,62.5,38.4C102.1,41.9,101.7,46.8,98,46.8z"/>
			</g>
		</g>
		<g>
			<g>
				<g>
					<path class="st0" d="M312.5,226.1c-12.7,2.9-21.2,2-28.2-4.9c-1.6-1.6-3.3-4.5-5.3-4.1c-2.9,0.4-4.1,10.2-2,13.9
						c2,3.7,13.5,9,25.7,9.4c7.8,0.4,14.3-2,14.3-8.6C316.6,228.6,316.6,224.5,312.5,226.1z"/>
					<path class="st0" d="M446.5,87.6c-4.9-6.1-10.2-11.4-17.2-11.8c-2.5,0-4.9,1.6-6.1,3.7c-5.7,12.7-13.5,24.9-27.4,40.4
						c-4.5,4.9-12.3,4.1-15.5-1.6c-18-30.6-33.5-44.9-35.1-46.6c-6.5-6.9-10.6-11-23.7-5.3c-9,3.7-16.7,20.8-16.7,30.2
						c0.8,44.5-13.9,77.2-22.9,98c-2.5,5.7-1.2,11.8,2.5,16.3c3.3,4.1,7.8,7.4,12.7,9c4.5,1.2,9.4,0.8,14.3,0
						c7.4-1.2,13.5-6.9,15.9-14.3c3.7-11.8,6.9-27.8,8.2-49c0.4-4.1,5.3-5.3,7.4-2l0,0l0,0c0,0.4,0.4,0.8,0.4,0.8l0,0
						c14.7,31.9,0.8,57.2-3.3,66.6c-0.8,2-0.8,3.3,0.8,4.9c8.6,9,24.5,11.8,38.8,11.8c18.8-0.8,42.1-6.5,49.8-20
						c12.3-21.2,4.1-55.1,5.7-57.2l0,0c1.6-1.2,4.1-1.2,4.9,0.8c3.7,9,6.5,21.2,8.6,33.5c2,11.4,3.7,21.7,22.5,22.1
						c0.8,0,4.5,0,6.5-0.8c12.3-4.1,19.2-17.6,16.3-30.2c-6.9-29.8-20.8-55.1-31.9-73.5C454.2,99.9,447.3,88.9,446.5,87.6z"/>
				</g>
			</g>
			<path class="st0" d="M484.5,237.1c6.9-2.9,17.2-7.4,13.9-16.3c-2-4.9-4.1-4.5-5.3-3.3c-4.9,6.1-14.3,8.2-18.8,8.2
				c-11,0.8-13.5-3.7-17.2-3.3c-3.7,0,0.4,7.4,1.6,10.6C460,237.1,473.9,240.4,484.5,237.1z"/>
			<g>
				<path class="st0" d="M358.7,256.3c-17.2-4.5-20-9.8-20.4-10.2c-2.9-2.5-0.8-15.5,2-13.1c0,0,8.6,8.2,22.9,11.4
					c19.2,4.5,40.8,0.8,63.7-10.2c3.3-1.6,3.7,11.4,0.4,13.1C406.5,258.8,377.5,259.2,358.7,256.3z"/>
			</g>
			<g>
				<path class="st0" d="M389.7,117.5h-0.4c-2,0-4.1-1.6-5.3-3.3c-20.8-38.8-43.3-52.3-43.3-52.3c-3.3-1.6,13.5-7.4,16.3-5.7
					c0.8,0.4,12.3,7.4,33.5,42.9c7.8-10.6,15.9-24.5,16.7-28.2c1.2-4.9,13.5,1.2,12.7,4.5c-1.2,4.5-5.3,12.3-12.3,22.5
					c-6.1,9-12.3,17.2-12.7,17.6C393.8,116.6,391.7,117.5,389.7,117.5z M406.5,74.6L406.5,74.6L406.5,74.6z M406,72.9L406,72.9
					L406,72.9z"/>
			</g>
		</g>
	</g>
</g>
</svg>
