<?xml version="1.0" encoding="utf-8"?>
<!-- Generator: Adobe Illustrator 24.0.1, SVG Export Plug-In . SVG Version: 6.00 Build 0)  -->
<svg version="1.1" id="Camada_3" xmlns="http://www.w3.org/2000/svg" xmlns:xlink="http://www.w3.org/1999/xlink" x="0px" y="0px"
	 viewBox="0 0 64 64" style="enable-background:new 0 0 64 64;" xml:space="preserve">
<style type="text/css">
	.st0{fill:#6000AA;}
</style>
<g>
	<g>
		<g>
			
				<ellipse transform="matrix(1 -1.966913e-03 1.966913e-03 1 -7.671141e-02 3.697630e-02)" class="st0" cx="18.8" cy="39" rx="2.3" ry="2.3"/>
			<path class="st0" d="M24.2,30.7c-0.3,0-0.6,0.3-0.4,0.6c0.6,1.1,1.4,3,1.8,6.2c0,0,0.2,2.1-0.1,3.5c-0.1,0.7-0.8,1.1-1.4,0.9
				c-0.8-0.2-1.8-0.4-2.7-0.8c-0.2-0.1-0.3,0-0.5,0.1c-0.2,0.2-0.3,0.3-0.5,0.4c-0.2,0.1-0.3,0.4-0.1,0.6c1.1,1.2,3.5,3,5.2,3.1
				c1.8,0.1,6.5-0.3,10.7-14.2c0.1-0.3-0.1-0.6-0.4-0.5c-1.3,0.1-3.4,0.3-5.6,0.3C28,30.9,25.8,30.8,24.2,30.7z"/>
			<path class="st0" d="M29.7,29.8c-3.3,0-5.5-0.3-5.7-0.3c-2-0.3-1.7-1.1-1.6-2.1c0.4-1.2,0.4-1.8,2-1.7c0.1,0,5.6,0.8,11.4,0.2
				c1-0.1,1.4,0.4,1.5,1.5s0.4,1.8-1.6,2.1C33.5,29.7,31.4,29.8,29.7,29.8z"/>
		</g>
		<g>
			<path class="st0" d="M3.4,46.9c-0.4-0.5-0.2-1.3,0.2-1.4c0.4-0.1,0.7,0.6,2.3,0.8c1.6,0.2,3.4-0.1,3.4-0.1c0.6-0.1,0,1.4-0.6,1.6
				C4.8,48.4,3.4,47,3.4,46.9z"/>
			<path class="st0" d="M20.6,30c-0.4-2.6-3-4.9-9-8c-3.6-1.8-7.2-3.3-7.3-3.3c-1.9-0.9-2.9-0.5-3.8,2.6c-0.2,0.6-1.4,6.9,1.1,11.3
				c0.8,1.3,1.8,3.5,2.1,6.2c0.4,3.1,0.3,4.6,0,5.3c-0.7,1.5,5.9,2,6.4,0.9c0.9-2,0.1-3.9-0.4-7.4c0.7-0.4,1.9-1.2,3.5-1.7
				c0.6-0.2,1.3-0.3,1.9-0.5c1.1-0.3,2.2-0.5,3.1-1C19.9,33.5,20.9,31.9,20.6,30z M5.9,37.1c-0.6-1.2-0.3-3.3,0.1-3.9
				C6.1,33,6.3,33,6.4,33.1s0.2,0.3,0.1,0.4c-0.3,0.3-0.5,1.9,0.1,3c0.3,0.6,0.8,0.9,1.5,0.9c0,0,0,0,0,0c0.2,0,0.3,0.1,0.3,0.3
				C8.5,38.3,6.6,38.3,5.9,37.1z M8.1,31.5v-4.8l4.1,2.4L8.1,31.5z"/>
			<g>
				<path class="st0" d="M12.6,21.5c-0.2,0-0.4,0-0.6-0.1c-5-3.3-8.8-4.2-8.9-4.2c-0.7-0.3,1.5-1.9,2.2-1.7c0.1,0,7.6,2.5,8,4.9
					C13.1,20.9,13.1,21.5,12.6,21.5z"/>
			</g>
		</g>
		<g>
			<g>
				<g>
					<path class="st0" d="M40.1,44.5c-1.6,0.3-2.8,0.2-3.6-0.6c-0.2-0.2-0.4-0.6-0.7-0.5c-0.3,0-0.5,1.3-0.3,1.8
						c0.2,0.4,1.7,1.1,3.3,1.2c1,0,1.9-0.2,1.9-1.1C40.6,44.8,40.6,44.3,40.1,44.5z"/>
					<path class="st0" d="M57.3,26.7c-0.6-0.8-1.3-1.5-2.2-1.5c-0.3,0-0.6,0.2-0.8,0.5c-0.7,1.6-1.7,3.2-3.5,5.2
						c-0.6,0.6-1.6,0.5-2-0.2c-2.3-3.9-4.3-5.8-4.5-6c-0.9-0.9-1.4-1.4-3-0.7c-1.1,0.5-2.2,2.7-2.1,3.9c0.1,5.7-1.8,9.9-2.9,12.6
						c-0.3,0.7-0.2,1.5,0.3,2.1c0.4,0.5,1,1,1.7,1.1c0.6,0.2,1.2,0.1,1.8,0c1-0.2,1.8-0.9,2-1.8c0.5-1.5,0.9-3.6,1.1-6.3
						c0-0.5,0.7-0.7,1-0.2l0,0l0,0c0,0,0,0.1,0,0.1l0,0c1.9,4.1,0.1,7.4-0.4,8.5c-0.1,0.3-0.1,0.4,0.1,0.6c1.1,1.2,3.1,1.5,5,1.5
						c2.4-0.1,5.4-0.8,6.4-2.6c1.6-2.8,0.5-7.1,0.7-7.3l0,0c0.2-0.2,0.5-0.2,0.6,0.1c0.5,1.1,0.9,2.8,1.1,4.3
						c0.3,1.5,0.5,2.8,2.9,2.9c0.1,0,0.6,0,0.8-0.1c1.6-0.5,2.5-2.2,2.1-3.9c-0.9-3.8-2.7-7.1-4.1-9.4
						C58.3,28.3,57.4,26.9,57.3,26.7z"/>
				</g>
			</g>
			<path class="st0" d="M62.2,45.9c0.9-0.3,2.2-0.9,1.8-2.1c-0.3-0.7-0.5-0.6-0.7-0.4c-0.6,0.8-1.8,1-2.4,1
				c-1.4,0.1-1.7-0.4-2.2-0.4c-0.5,0,0.1,1,0.2,1.4C59,45.9,60.8,46.3,62.2,45.9z"/>
			<g>
				<path class="st0" d="M46,48.3c-2.2-0.6-2.6-1.3-2.6-1.3c-0.3-0.3-0.1-2,0.3-1.7c0,0,1.1,1,2.9,1.5c2.5,0.6,5.2,0.1,8.2-1.3
					c0.4-0.2,0.5,1.4,0,1.7C52.2,48.7,48.4,48.7,46,48.3z"/>
			</g>
			<g>
				<path class="st0" d="M50,30.6C50,30.6,49.9,30.6,50,30.6c-0.4,0-0.6-0.2-0.7-0.4c-2.7-5-5.6-6.7-5.6-6.7c-0.4-0.2,1.7-1,2.1-0.7
					c0.1,0.1,1.6,0.9,4.3,5.5c1-1.4,2-3.1,2.1-3.6c0.1-0.6,1.7,0.2,1.6,0.6c-0.1,0.6-0.7,1.6-1.6,2.9c-0.8,1.2-1.6,2.2-1.6,2.2
					C50.5,30.4,50.3,30.6,50,30.6z M52.1,25L52.1,25L52.1,25z M52.1,24.8L52.1,24.8L52.1,24.8z"/>
			</g>
		</g>
	</g>
</g>
</svg>
